<svg width="659" height="620" viewBox="0 0 659 620" fill="none" xmlns="http://www.w3.org/2000/svg">
<path d="M96.7293 605.338C96.9638 599.867 98.1793 592.811 104.249 590.948C108.369 589.689 112.882 590.928 117.095 590.916C125.199 590.89 132.524 585.639 136.933 579.147C141.466 572.481 143.564 564.062 142.565 556.043C142.081 552.103 140.82 548.255 138.748 544.865C136.67 541.461 133.791 538.47 130.858 535.786C124.314 529.818 116.522 525.104 108.279 521.882C100.178 518.719 91.3052 516.85 82.5817 517.764C78.5562 518.192 74.5151 519.218 70.8784 521.041C66.5095 523.237 62.9299 526.77 60.2349 530.809C54.7258 539.074 52.5365 549.623 53.1667 559.461C53.8117 569.269 59.0022 578.007 67.7532 582.659C72.3238 585.089 77.3611 586.121 82.3985 587.079C84.9493 587.568 87.7125 588.225 89.2721 590.492C90.8119 592.724 90.7787 595.501 90.4737 598.081C90.1989 600.305 89.6818 602.494 89.4219 604.713C89.3719 605.108 89.5792 605.41 89.9647 605.529C91.7244 606.041 93.3947 606.781 95.2538 606.873C96.1388 606.909 96.0516 605.53 95.1665 605.494C93.4607 605.417 91.8547 604.648 90.2335 604.18C90.4161 604.457 90.5937 604.72 90.7763 604.997C91.2563 600.86 92.8443 596.439 91.5987 592.29C90.0428 587.132 85.3021 586.224 80.6255 585.361C75.6475 584.432 70.7047 583.015 66.3915 580.269C62.276 577.647 58.963 573.87 56.981 569.413C52.9134 560.286 53.9714 548.909 57.3258 539.711C59.0427 535.008 61.5653 530.549 65.1004 526.982C68.4077 523.646 72.4701 521.444 76.9911 520.201C85.2912 517.912 94.22 518.882 102.376 521.293C110.917 523.824 119.03 528.069 126.05 533.534C132.328 538.428 138.333 544.459 140.449 552.347C142.555 560.205 141.169 568.882 137.259 575.959C133.452 582.828 126.463 588.915 118.318 589.465C114.154 589.749 109.983 588.62 105.819 589.176C101.279 589.791 97.9912 593.013 96.5715 597.296C95.7078 599.904 95.452 602.657 95.3447 605.385C95.3089 606.32 96.6935 606.223 96.7293 605.338Z" fill="#577575"/>
<path d="M94.9086 600.898C95.3479 597.706 95.5152 594.463 96.2412 591.316C96.5893 589.784 97.0956 588.282 97.8539 586.895C98.7212 585.339 99.9887 584.096 101.246 582.848C105.242 578.93 110.126 576.027 113.869 571.847C120.841 564.044 123.21 552.595 121.205 542.464C120.085 536.807 117.536 531.509 113.581 527.285C112.968 526.632 112.052 527.668 112.655 528.317C119.795 535.956 121.882 547.205 119.654 557.216C118.465 562.542 116.026 567.575 112.258 571.557C108.509 575.525 103.759 578.359 99.912 582.227C97.5404 584.611 95.9154 587.06 95.0459 590.345C94.1663 593.7 94.0184 597.199 93.5492 600.624C93.4294 601.503 94.7839 601.788 94.9086 600.898Z" fill="#577575"/>
<path d="M94.2842 584.745C92.1192 568.795 87.5367 552.46 90.5293 536.317C91.3957 531.633 92.959 527.137 95.2883 522.989C95.7245 522.219 94.4891 521.599 94.053 522.369C85.6673 537.352 88.0476 555.091 90.7414 571.269C91.4921 575.788 92.2972 580.298 92.9144 584.836C93.022 585.707 94.4017 585.62 94.2842 584.745Z" fill="#577575"/>
<path d="M100.219 574.715C109.195 561.736 110.74 544.532 107.511 529.396C107.329 528.526 106.018 528.968 106.205 529.829C109.321 544.426 107.861 561.264 99.2012 573.784C98.691 574.505 99.7083 575.436 100.219 574.715Z" fill="#577575"/>
<path d="M99.2588 560.857C98.288 554.459 99.2556 547.922 101.083 541.766C101.336 540.916 99.9771 540.642 99.7238 541.492C97.8714 547.746 96.8887 554.437 97.8791 560.944C98.0115 561.814 99.3961 561.742 99.2588 560.857Z" fill="#577575"/>
<path d="M87.4235 581.424C83.52 575.422 79.9136 569.123 78.0485 562.165C76.0605 554.713 76.535 547.161 77.9292 539.65C78.9001 534.412 80.3016 528.957 83.9609 524.92C84.565 524.259 83.5327 523.333 82.9286 523.994C79.7595 527.498 78.1763 532.033 77.1371 536.569C76.1823 540.788 75.4745 545.132 75.3058 549.462C75.0046 556.792 76.5826 563.927 79.6546 570.576C81.5333 574.623 83.8177 578.452 86.2506 582.184C86.7441 582.926 87.9022 582.172 87.4235 581.424Z" fill="#577575"/>
<path d="M81.5406 580.847C74.8002 577.662 69.1501 572.526 65.7716 565.848C61.9394 558.248 61.3671 549.553 64.2997 541.565C66.0761 536.744 68.7272 532.3 71.0373 527.722C71.4339 526.932 70.2035 526.302 69.802 527.102C65.504 535.616 60.2321 544.025 61.0549 553.971C61.6879 561.609 64.853 568.861 70.1415 574.421C73.2031 577.64 76.9083 580.192 80.9159 582.092C81.7313 582.464 82.351 581.229 81.5406 580.847Z" fill="#577575"/>
<path d="M71.3701 561.128C69.8482 556.469 69.4641 551.441 71.349 546.823C71.6863 546.003 70.4509 545.383 70.1136 546.203C68.0799 551.167 68.4043 556.536 70.0543 561.556C70.3301 562.411 71.6509 561.974 71.3701 561.128Z" fill="#577575"/>
<path d="M86.0231 569.716C84.4038 563.969 83.7735 558.026 83.44 552.084C83.3917 551.195 82.012 551.281 82.0603 552.171C82.3987 558.227 83.0534 564.293 84.7073 570.143C84.9534 571.009 86.2594 570.576 86.0231 569.716Z" fill="#577575"/>
<path d="M84.1134 538.602C84.5874 535.266 85.0515 531.975 86.8699 529.067C87.3357 528.311 86.1003 527.691 85.6346 528.447C83.7517 531.458 83.2528 534.893 82.7589 538.342C82.6341 539.207 83.9886 539.491 84.1134 538.602Z" fill="#577575"/>
<path d="M98.7848 532.361C99.125 529.267 99.7816 526.234 100.112 523.135C100.207 522.255 98.8476 521.981 98.7525 522.861C98.4123 525.954 97.7557 528.988 97.4254 532.087C97.3402 532.972 98.6847 533.251 98.7848 532.361Z" fill="#577575"/>
<path d="M108.802 586.207C114.602 582.836 120.89 579.797 124.927 574.219C129.172 568.349 131.293 560.869 130.952 553.662C130.754 549.47 129.766 545.35 128.248 541.448C127.922 540.617 126.617 541.05 126.942 541.88C130.372 550.7 130.479 559.928 126.561 568.597C124.786 572.528 122.201 575.88 118.761 578.494C115.425 581.024 111.654 582.94 108.047 585.049C107.275 585.502 108.035 586.651 108.802 586.207Z" fill="#577575"/>
<path d="M126.587 581.349C129.147 578.713 131.761 576.069 133.738 572.943C135.76 569.754 136.798 566.182 136.837 562.405C136.848 561.52 135.468 561.607 135.457 562.492C135.413 566.154 134.311 569.558 132.305 572.619C130.422 575.508 127.941 577.96 125.555 580.422C124.936 581.064 125.958 581.985 126.587 581.349Z" fill="#577575"/>
<path d="M386.848 80.647C395.244 76.9558 403.132 69.625 407.507 61.5818C410.515 56.0418 413.028 47.2391 406.844 42.7546C401.421 38.8332 393.746 42.0036 389.368 46.0214C384.458 50.5419 380.444 56.6652 378.447 63.058C377.462 66.2077 376.913 69.7701 377.856 73.022C378.842 76.4399 381.319 78.7705 384.53 80.157C386.275 80.9131 387.109 78.0886 385.388 77.3332C373.895 72.3438 384.214 55.7843 389.537 50.0045C392.964 46.289 398.349 42.4882 403.711 44.407C409.82 46.5825 407.672 54.9719 405.456 59.1692C401.199 67.2158 393.786 74.3954 385.413 78.0872C383.696 78.8384 385.106 81.4211 386.848 80.647Z" fill="white"/>
<path d="M385.8 78.5709C387.85 71.9442 391.879 66.1509 395.6 60.3724C396.635 58.7777 394.112 57.2226 393.101 58.8179C389.256 64.8048 385.126 70.8541 382.998 77.714C382.429 79.5103 385.254 80.3914 385.8 78.5709Z" fill="white"/>
<path d="M366.698 68.7964C366.126 63.2483 365.389 57.7189 364.321 52.2271C363.111 45.9545 361.708 38.9937 358.19 33.5496C356.949 31.6309 355.284 29.7472 352.967 29.2102C350.417 28.6194 348.023 29.9634 346.208 31.6534C343.353 34.3024 341.037 37.8614 340.315 41.7013C339.483 46.103 340.296 50.6223 341.945 54.7183C345.487 63.4822 354.135 72.4155 364.381 70.7311C366.25 70.4314 365.532 67.5626 363.686 67.8629C355.687 69.1879 348.825 62.071 345.548 55.5745C343.743 51.992 342.634 47.9114 342.961 43.8955C343.253 40.2787 345.039 37.1283 347.492 34.5149C348.294 33.6669 349.19 32.8215 350.263 32.3343C350.932 32.0239 351.688 31.9278 352.18 32.036C353.748 32.3633 354.953 33.8808 355.875 35.4137C358.89 40.3726 360.152 46.4584 361.287 52.0698C361.946 55.3842 362.487 58.7187 362.957 62.0513C363.132 63.351 363.307 64.6507 363.457 65.9732C363.512 66.5397 363.59 67.0834 363.645 67.6499C363.701 68.1458 363.738 68.5235 363.756 68.7123C363.962 70.5779 366.903 70.6855 366.698 68.7964Z" fill="white"/>
<path d="M364.174 67.9935C360.773 62.5292 358.52 56.4857 355.836 50.6888C355.037 48.9711 352.453 50.3803 353.252 52.098C355.936 57.8949 358.189 63.9384 361.589 69.4027C362.58 71.0082 365.187 69.5997 364.174 67.9935Z" fill="white"/>
<path d="M381.222 40.2584C386.126 34.3017 391.382 27.5784 392.69 19.7535C393.486 14.9741 393.325 9.06102 390.762 4.79768C389.66 2.97715 388.006 1.51748 385.822 1.29027C383.309 1.03013 381.008 2.42383 379.128 3.92372C374.234 7.85621 372.629 14.5898 372.692 20.5942C372.764 27.1639 374.515 34.2759 378.58 39.5708C379.739 41.0634 381.869 39.0293 380.71 37.5602C377.735 33.7088 376.329 28.5134 375.806 23.7434C375.247 18.5722 375.765 12.8197 378.857 8.45913C380.796 5.71333 385.422 2.07921 388.02 5.9669C390.302 9.35124 390.395 14.3443 389.953 18.2629C389.078 25.7941 383.871 32.4483 379.211 38.1058C378.015 39.5547 380.026 41.7072 381.222 40.2584Z" fill="white"/>
<path d="M381.722 37.4444C381.879 31.9406 382.624 26.5007 382.781 20.9969C382.835 19.1152 379.894 19.0076 379.839 20.9128C379.682 26.4166 378.938 31.8565 378.78 37.3604C378.726 39.2655 381.668 39.3496 381.722 37.4444Z" fill="white"/>
<path d="M587.328 253.603C591.48 275.438 605.719 300.678 628.841 306.279C629.471 306.435 630.048 305.94 630.206 305.347C631.832 299.007 630.187 291.974 628.59 285.779C626.691 278.373 624.112 271.583 619.809 265.211C615.845 259.335 611.14 254.959 604.889 251.585C601.763 249.889 598.49 248.466 595.205 247.12C593.736 246.526 592.25 245.934 590.765 245.36C589.723 244.957 588.58 244.225 587.447 244.315C586.779 244.368 586.376 244.943 586.387 245.559C586.381 248.291 587.057 250.912 587.328 253.603C587.484 255.087 589.807 254.92 589.65 253.418C589.379 250.727 588.703 248.106 588.692 245.394C588.333 245.816 587.974 246.237 587.632 246.638C588.394 246.578 590.161 247.634 590.991 247.961C592.38 248.505 593.771 249.067 595.143 249.631C598.101 250.854 601.046 252.153 603.86 253.687C609.878 256.949 614.311 261.197 618.11 266.88C622.079 272.811 624.431 279.096 626.229 285.949C627.807 291.902 629.477 298.784 627.91 304.913C628.371 304.596 628.814 304.299 629.275 303.981C618.142 301.277 609.247 293.345 602.759 284.191C596.293 275.073 591.741 264.399 589.648 253.399C589.366 251.962 587.042 252.129 587.328 253.603Z" fill="#5B7580"/>
<path d="M588.502 248.402C596.921 257.159 604.293 266.859 611.007 276.968C613.896 281.32 616.978 285.508 619.991 289.776C623.133 294.239 626.238 298.949 627.563 304.324C627.922 305.773 630.121 304.98 629.762 303.531C628.471 298.359 625.578 293.726 622.579 289.401C619.388 284.792 616.041 280.326 612.939 275.654C606.1 265.368 598.589 255.567 590.026 246.653C588.967 245.559 587.464 247.344 588.502 248.402Z" fill="#5B7580"/>
<path d="M623.802 299.123C614.52 290.323 604.881 281.514 598.613 270.192C597.892 268.884 595.979 270.215 596.701 271.523C603.056 283.007 612.856 291.971 622.279 300.891C623.371 301.926 624.875 300.16 623.802 299.123Z" fill="#5B7580"/>
<path d="M620.791 278.713C617.3 272.201 612.421 266.81 607.396 261.468C606.374 260.371 604.871 262.156 605.892 263.234C610.795 268.455 615.495 273.711 618.897 280.043C619.583 281.372 621.494 280.023 620.791 278.713Z" fill="#5B7580"/>
<path d="M599.488 265.446C597.995 262.665 596.825 259.71 595.081 257.062C594.739 256.528 593.964 256.421 593.451 256.78C592.918 257.14 592.809 257.879 593.169 258.411C594.913 261.059 596.084 264.015 597.577 266.795C597.883 267.351 598.729 267.414 599.207 267.077C599.754 266.678 599.775 266.003 599.488 265.446Z" fill="#5B7580"/>
<path d="M593.155 224.706C606.753 242.383 630.794 258.331 653.992 252.927C654.654 252.781 654.814 251.982 654.696 251.43C653.262 244.942 648.475 239.3 644.201 234.459C639.475 229.112 634.528 224.512 628.315 220.911C622.082 217.292 615.882 215.262 608.66 214.958C604.947 214.805 601.224 215.009 597.509 215.305C595.856 215.437 594.185 215.588 592.533 215.739C591.365 215.851 590.008 215.716 588.992 216.339C588.6 216.576 588.336 217.252 588.559 217.702C589.808 220.24 591.639 222.339 593.155 224.706C593.966 225.969 595.879 224.638 595.068 223.375C593.678 221.185 591.914 219.23 590.739 216.911C590.589 217.372 590.455 217.813 590.305 218.273C590.947 217.886 593.183 218.025 594.093 217.953C595.652 217.81 597.211 217.667 598.773 217.561C602.118 217.313 605.471 217.158 608.828 217.302C615.731 217.593 621.679 219.738 627.601 223.212C633.505 226.689 638.2 231.178 642.684 236.301C646.695 240.882 651.135 246.159 652.48 252.243C652.72 251.738 652.943 251.252 653.183 250.747C642.024 253.339 630.502 250.217 620.587 244.965C610.71 239.73 601.869 232.241 595.069 223.393C594.151 222.194 592.238 223.525 593.155 224.706Z" fill="#5B7580"/>
<path d="M591.592 219.407C603.401 223.553 614.643 229.035 625.494 235.241C629.961 237.803 634.572 240.073 639.103 242.499C643.653 244.942 648.317 247.638 651.717 251.594C652.685 252.714 654.6 251.402 653.63 250.263C646.953 242.49 636.654 238.99 627.993 233.994C616.685 227.451 604.949 221.634 592.602 217.306C591.199 216.819 590.188 218.92 591.592 219.407Z" fill="#5B7580"/>
<path d="M646.133 248.823C633.992 245.189 621.47 241.717 610.876 234.518C609.65 233.681 608.128 235.448 609.372 236.284C620.323 243.735 633.136 247.353 645.7 251.121C647.136 251.549 647.551 249.252 646.133 248.823Z" fill="#5B7580"/>
<path d="M634.499 232.108C628.44 227.859 621.705 225.216 614.793 222.699C613.388 222.194 612.378 224.295 613.782 224.8C620.483 227.24 627.096 229.762 632.994 233.874C634.222 234.73 635.726 232.964 634.499 232.108Z" fill="#5B7580"/>
<path d="M609.511 229.871C606.839 228.008 604.386 225.847 601.546 224.221C601.017 223.927 600.236 224.213 599.981 224.758C599.712 225.378 599.967 225.993 600.517 226.324C601.221 226.716 601.734 227.05 602.347 227.468C603 227.921 603.636 228.394 604.272 228.867C605.505 229.798 606.702 230.75 607.97 231.64C608.465 231.994 609.199 232.047 609.604 231.51C609.999 231.067 610.047 230.259 609.511 229.871Z" fill="#5B7580"/>
<path d="M70.3281 230.75C68.4248 237.911 58.5727 240.29 52.1899 240.463C48.8905 240.554 45.0983 240.224 42.3163 238.292C41.2627 237.567 40.4284 236.557 40.1175 235.293C39.7647 233.83 40.0628 231.638 41.062 230.493C42.2575 229.13 44.3337 230.402 45.5594 231.085C47.1973 231.993 48.8052 233.095 50.6025 233.651C54.3073 234.792 58.7429 232.309 59.6859 228.526C60.6117 224.794 57.8074 221.086 54.2662 220.14C50.4217 219.108 46.1485 220.084 42.3372 220.849C38.6646 221.588 34.0962 223.174 30.416 221.829C27.7167 220.831 25.7354 218.592 24.5439 216.025C24.3392 215.575 23.283 213.711 23.6937 213.168C23.7217 213.141 24.6825 213.306 24.9474 213.37C28.3287 214.27 31.615 216.59 35.2258 216.375C38.6095 216.175 41.8211 213.324 40.3642 209.842C38.875 206.292 35.3524 204.733 31.957 203.634C29.8845 202.964 27.3207 202.19 26.301 200.061C25.713 198.822 25.4127 195.341 27.1203 194.635C28.8948 193.898 30.9287 196.358 32.785 196.158C36.1209 195.802 34.4557 189.906 33.2122 188.422C31.6739 186.614 29.3001 185.692 27.1297 184.877C24.6068 183.932 22.0171 183.019 19.7104 181.583C17.2115 180.035 15.5066 177.827 14.8449 174.934C14.2935 172.523 14.6898 169.995 15.438 167.654C16.1292 165.45 17.2729 162.903 19.3686 161.693C21.2746 160.603 23.0884 161.165 24.0727 163.022C25.4413 165.586 25.6712 170.282 28.9179 171.33C30.4172 171.811 32.3552 171.268 33.4043 170.113C34.56 168.838 34.8706 166.984 35.1231 165.35C35.4486 163.186 35.5314 160.948 36.1936 158.855C36.9132 156.596 38.662 155.238 40.7711 154.283C45.0339 152.351 50.8212 152.907 52.5809 157.863C54.2549 162.587 50.5823 166.472 48.8609 170.549C47.1054 174.699 47.4543 184.118 54.1697 181.654C56.7269 180.715 58.9893 178.998 61.2598 177.525C63.402 176.128 65.8699 174.353 68.4857 174.044C70.7635 173.777 72.7691 175.839 72.4362 178.157C72.0729 180.696 69.2217 182.589 67.3123 183.955C62.7784 187.228 55.1803 190.821 54.5657 197.15C54.1665 201.259 57.1217 204.852 60.8285 206.281C65.042 207.903 70.2616 206.468 71.5259 201.76C72.1173 199.577 71.9802 197.226 72.8583 195.124C73.6793 193.159 75.794 191.308 77.924 190.906C81.2413 190.257 82.6768 194.121 82.8935 196.749C83.2073 200.485 81.7589 203.963 78.7977 206.252C76.5518 207.975 72.0676 210.358 72.9047 213.839C73.8362 217.741 77.9508 217.063 80.9252 216.841C82.9193 216.697 84.3659 217.41 84.6437 219.569C84.8915 221.468 83.6204 223.129 82.2994 224.348C79.7191 226.713 76.1611 228.482 72.7585 229.323C71.7982 229.556 72.0727 231.085 73.0441 230.847C76.5854 229.979 80.1987 228.211 82.9784 225.831C85.5847 223.604 87.7093 219.592 84.9632 216.543C82.4138 213.701 78.4282 216.941 75.6226 215.129C71.4223 212.429 78.7161 208.38 80.4944 206.885C83.2285 204.609 84.5345 201.008 84.4725 197.508C84.4248 194.632 83.4346 191.006 80.5672 189.719C77.298 188.256 73.2349 191.053 71.7501 193.89C70.679 195.935 70.6727 198.246 70.2524 200.469C69.7022 203.36 67.7188 205.339 64.6627 205.449C60.0842 205.598 55.1597 201.491 56.2102 196.626C56.8964 193.477 59.8299 191.187 62.2873 189.362C65.0518 187.32 68.0726 185.578 70.6738 183.313C72.5198 181.702 74.4007 179.511 73.9239 176.885C73.4993 174.509 71.5426 172.519 69.0692 172.497C66.4021 172.473 63.8475 174.098 61.6726 175.456C59.2074 177.01 56.8384 178.847 54.1621 180.023C51.97 180.978 50.3411 180.683 49.7634 178.161C49.3064 176.171 49.2833 173.998 49.9381 172.059C50.6734 169.862 52.0087 167.936 53.0413 165.868C55.0327 161.893 55.2649 156.959 51.6403 153.8C48.3881 150.956 43.4422 151.283 39.7567 153.072C37.8861 153.98 36.0826 155.282 35.1735 157.207C34.2701 159.115 34.0661 161.302 33.8139 163.362C33.5924 165.173 33.5735 168.053 32.0194 169.329C30.3923 170.683 28.5931 169.839 27.7444 168.204C26.3387 165.507 26.0824 160.7 22.5801 159.749C17.9029 158.476 14.9141 163.911 13.8456 167.548C12.4709 172.226 12.7717 177.465 16.452 181.05C18.3004 182.845 20.666 183.977 23.028 184.959C25.5773 186.016 28.4407 186.727 30.7233 188.312C31.8592 189.093 32.7593 190.153 33.0243 191.549C33.1387 192.153 33.3834 193.848 32.9117 194.406C32.4062 195.009 31.3688 194.317 30.769 194.045C28.6391 193.088 26.1202 192.264 24.8972 194.959C24.0552 196.824 24.0307 199.267 25.0434 201.07C26.0611 202.911 28.0135 203.9 29.914 204.612C31.9136 205.359 34.106 205.737 35.8559 206.989C37.2219 207.96 38.792 209.437 39.1306 211.155C39.5687 213.333 37.006 214.714 35.1503 214.859C33.2835 215.01 31.3021 214.131 29.6058 213.471C28.1517 212.914 22.7095 209.951 22.1241 212.996C21.7457 214.966 23.4452 217.616 24.517 219.115C25.915 221.088 27.8879 222.658 30.2084 223.413C33.951 224.632 38.351 223.238 42.057 222.482C45.9516 221.691 50.8993 220.319 54.7475 221.954C56.7073 222.788 58.2749 224.912 58.2761 227.068C58.2829 229.661 56.061 231.687 53.6634 232.247C49.6953 233.171 46.7792 229.092 43.0852 228.426C39.5072 227.773 38.082 232.064 38.4282 234.959C38.7747 237.827 41.0756 239.732 43.6198 240.75C50.338 243.45 59.4643 242.041 65.5957 238.46C68.3827 236.832 70.88 234.466 71.7329 231.263C72.0438 230.288 70.589 229.786 70.3281 230.75Z" fill="#9D8A69"/>
</svg>
