<svg width="24" height="21" viewBox="0 0 24 21" fill="none" xmlns="http://www.w3.org/2000/svg">
<path d="M11.1803 0.781664C11.4879 -0.122033 12.766 -0.122035 13.0736 0.781662L15.0418 6.5641C15.1798 6.96936 15.5604 7.24187 15.9885 7.24187H22.2553C23.2353 7.24187 23.6304 8.50513 22.8252 9.06359L17.8364 12.5235C17.4696 12.7779 17.3158 13.2448 17.4597 13.6674L19.3839 19.3205C19.6947 20.2337 18.66 21.0142 17.8673 20.4644L12.6968 16.8785C12.3541 16.6408 11.8998 16.6408 11.557 16.8785L6.38654 20.4644C5.59387 21.0142 4.55915 20.2337 4.86998 19.3205L6.79418 13.6674C6.93805 13.2448 6.78429 12.7779 6.41741 12.5235L1.42865 9.06359C0.62341 8.50513 1.0186 7.24187 1.99854 7.24187H8.26536C8.69347 7.24187 9.07408 6.96936 9.21203 6.5641L11.1803 0.781664Z" fill="#FFA858"/>
</svg>
